<?xml version="1.0" encoding="UTF-8"?>
<!DOCTYPE svg PUBLIC "-//W3C//DTD SVG 1.1//EN" "http://www.w3.org/Graphics/SVG/1.1/DTD/svg11.dtd">
<!-- Creator: CorelDRAW 2019 (64-Bit) -->
<svg xmlns="http://www.w3.org/2000/svg" xml:space="preserve" width="14.8797in" height="1.82461in" version="1.1" style="shape-rendering:geometricPrecision; text-rendering:geometricPrecision; image-rendering:optimizeQuality; fill-rule:evenodd; clip-rule:evenodd"
viewBox="0 0 14940.24 1832.03"
 xmlns:xlink="http://www.w3.org/1999/xlink">
 <defs>
  <style type="text/css">
   <![CDATA[
    .fil0 {fill:#004B5F}
    .fil1 {fill:#D2092F}
   ]]>
  </style>
 </defs>
 <g id="Layer_x0020_1">
  <metadata id="CorelCorpID_0Corel-Layer"/>
  <g id="_2458467639920">
   <path class="fil0" d="M8184.25 1490.07c-5.39,22.33 -10.77,49.3 -14.08,85.27 -3.29,35.97 -4.48,80.94 0.89,114.06 5.4,33.11 17.37,54.4 33.68,72.38 16.33,17.98 36.99,32.68 52.12,41.66 15.12,8.99 24.7,12.3 43.12,14.25 18.41,1.94 45.66,2.53 74.24,1.63 28.6,-0.9 58.55,-3.3 83.7,-11.53 25.14,-8.25 45.51,-22.33 71.7,-37.61 26.2,-15.3 58.24,-31.78 90.28,-48.27l0.9 80.93 254.21 0.91c3,-46.46 5.98,-92.92 11.37,-134.43 5.4,-41.51 13.17,-78.07 22.46,-116.29 9.29,-38.22 20.06,-78.07 32.33,-130.22 12.29,-52.17 26.05,-116.6 38.62,-180.6 12.58,-63.99 23.97,-127.53 28.3,-173.98 4.35,-46.46 1.65,-75.82 -7.79,-106.85 -9.42,-31.03 -25.6,-63.7 -52.41,-87.54 -26.79,-23.83 -64.2,-38.81 -101.03,-47.79 -36.83,-9 -73.07,-11.99 -118.73,-12.43 -45.66,-0.45 -100.74,1.63 -147.9,7.63 -47.16,5.99 -86.39,15.89 -121.88,32.68 -35.48,16.78 -67.21,40.46 -93.86,70.73 -26.64,30.28 -48.2,67.14 -62.88,93.08 -14.67,25.92 -22.44,40.89 -25.9,59.93 -3.44,19.03 -2.54,42.12 -1.64,65.2l266.78 0.88c1.21,-14.99 2.4,-29.96 5.69,-44.65 3.31,-14.7 8.68,-29.09 15.58,-42.41 6.89,-13.34 15.27,-25.64 30.08,-37.17 14.83,-11.53 36.09,-22.33 55.99,-28.32 19.91,-6 38.49,-7.19 53.9,0 15.42,7.19 27.7,22.77 34.14,42.87 6.44,20.08 7.02,44.65 5.67,65.04 -1.34,20.37 -4.63,36.56 -8.23,47.94 -3.59,11.38 -7.48,17.99 -26.04,29.54 -18.56,11.53 -51.8,28.01 -90.57,40 -38.77,11.99 -83.09,19.49 -122.32,28.79 -39.22,9.28 -73.35,20.36 -101.05,32.35 -27.7,11.99 -48.95,24.88 -69.03,40.16 -20.06,15.29 -38.91,32.98 -59.43,52.46 -20.52,19.48 -42.66,40.76 -56.45,60.24 -13.77,19.48 -19.15,37.16 -24.54,59.49zm3952.26 -969.54l-273.07 1276.84 304.52 8.09 102.4 -508.93c49.1,0 98.21,0 126.35,2.4 28.15,2.4 35.33,7.19 42.81,19.18 7.49,11.99 15.27,31.17 12.58,69.25 -2.69,38.06 -15.87,95 -26.35,146.25 -10.48,51.25 -18.27,96.81 -24.12,141.02 -5.83,44.21 -9.73,87.08 -10.48,106.11 -0.75,19.02 1.64,14.22 56.14,13.03 54.5,-1.21 161.1,1.19 267.69,3.59 -1.21,-27.58 -2.4,-55.15 -2.4,-84.53 0,-29.38 1.19,-60.54 8.38,-125.28 7.19,-64.75 20.37,-163.04 26.35,-228.98 6,-65.95 4.79,-99.52 -4.19,-121.1 -8.98,-21.58 -25.75,-31.17 -40.72,-38.96 -14.97,-7.8 -28.14,-13.8 -36.53,-19.18 -8.38,-5.4 -11.98,-10.19 -14.37,-17.39 -2.4,-7.19 -3.59,-16.79 11.98,-28.17 15.58,-11.4 47.91,-24.58 80.24,-50.36 32.35,-25.79 64.7,-64.14 88.63,-121.08 23.96,-56.95 39.53,-132.49 38.93,-197.22 -0.6,-64.74 -17.37,-118.71 -45.51,-157.66 -28.15,-38.97 -67.68,-62.95 -184.46,-74.94 -116.76,-11.99 -310.79,-11.99 -504.81,-11.99zm171.09 540.85l79.95 -316.51c47.31,-0.6 94.63,-1.19 123.67,3 29.04,4.19 39.83,13.18 49.39,29.36 9.58,16.18 17.97,39.57 18.42,67 0.45,27.42 -7.04,58.9 -15.58,87.07 -8.52,28.17 -18.1,53.05 -31.88,74.03 -13.77,20.97 -31.74,38.07 -49.7,55.15l-174.27 0.89zm683.9 -219.2l-201.22 963.91 282.06 -1.79 164.69 -799.66c32.93,-160.66 32.93,-162.45 32.93,-164.25l-278.46 1.79zm35.48 -100.27l268.59 1.79 45.81 -231.08 -270.38 -3.61c0.6,0.6 1.19,1.21 -6.14,40.03l-37.87 192.86zm436.12 535.81c-27.7,11.99 -48.95,24.88 -69.03,40.16 -20.06,15.29 -38.91,32.98 -59.43,52.46 -20.52,19.48 -42.66,40.76 -56.45,60.24 -13.77,19.48 -19.15,37.16 -24.54,59.49 -5.4,22.33 -10.77,49.3 -14.08,85.27 -3.29,35.97 -4.48,80.94 0.9,114.06 5.39,33.11 17.37,54.4 33.68,72.38 16.33,17.98 36.99,32.68 52.11,41.66 15.12,8.99 24.71,12.3 43.12,14.25 18.41,1.94 45.66,2.53 74.25,1.63 28.6,-0.9 58.55,-3.3 83.69,-11.53 25.15,-8.25 45.52,-22.33 71.7,-37.61 26.2,-15.3 58.24,-31.78 90.28,-48.27l0.89 80.93 254.21 0.91c3,-46.46 5.98,-92.92 11.38,-134.43 5.39,-41.51 13.17,-78.07 22.46,-116.29 9.29,-38.22 20.06,-78.07 32.33,-130.22 12.29,-52.17 26.06,-116.6 38.62,-180.6 12.58,-63.99 23.97,-127.53 28.31,-173.98 4.35,-46.46 1.64,-75.82 -7.79,-106.85 -9.42,-31.03 -25.6,-63.7 -52.41,-87.54 -26.79,-23.83 -64.2,-38.81 -101.04,-47.79 -36.83,-9 -73.07,-11.99 -118.73,-12.43 -45.66,-0.45 -100.74,1.63 -147.9,7.63 -47.16,5.99 -86.39,15.89 -121.88,32.68 -35.47,16.78 -67.2,40.46 -93.86,70.73 -26.65,30.28 -48.2,67.14 -62.89,93.08 -14.67,25.92 -22.44,40.89 -25.89,59.93 -3.44,19.03 -2.54,42.12 -1.64,65.2l266.78 0.88c1.21,-14.99 2.4,-29.96 5.69,-44.65 3.31,-14.7 8.68,-29.09 15.58,-42.41 6.89,-13.34 15.27,-25.64 30.08,-37.17 14.83,-11.53 36.09,-22.33 55.99,-28.32 19.92,-6 38.49,-7.19 53.91,0 15.42,7.19 27.7,22.77 34.14,42.87 6.44,20.08 7.02,44.65 5.67,65.04 -1.34,20.37 -4.63,36.56 -8.23,47.94 -3.59,11.38 -7.48,17.99 -26.04,29.54 -18.56,11.53 -51.81,28.01 -90.58,40 -38.77,11.99 -83.09,19.49 -122.31,28.79 -39.23,9.28 -73.35,20.36 -101.05,32.35zm67.51 196.14c13.18,-18.43 32.93,-39.41 53.75,-55.89 20.81,-16.49 42.68,-28.48 70.07,-40.47 27.39,-11.99 60.34,-23.98 76.8,-29.67 16.47,-5.69 16.47,-5.11 15.41,8.69 -1.04,13.78 -3.13,40.75 -8.52,73.28 -5.39,32.53 -14.08,70.58 -26.81,102.51 -12.73,31.92 -29.48,57.71 -47.75,72.56 -18.27,14.83 -38.03,18.71 -60.34,21.86 -22.31,3.15 -47.16,5.55 -62.28,5.4 -15.12,-0.15 -20.5,-2.86 -24.39,-10.05 -3.89,-7.19 -6.29,-18.88 -8.08,-35.95 -1.79,-17.1 -3,-39.57 -0.31,-58.76 2.71,-19.18 9.29,-35.07 22.46,-53.5zm703.59 -635.56c-53.31,252.37 -106.59,504.74 -135.94,646.82 -29.35,142.06 -34.73,173.83 -34.14,200.2 0.6,26.38 7.21,47.36 23.06,68.33 15.87,20.98 41.03,41.97 67.97,55.46 26.96,13.47 55.7,19.48 84.44,21.87 28.75,2.4 57.48,1.19 88.62,-8.99 31.14,-10.19 64.68,-29.38 91.92,-49.46 27.25,-20.08 48.22,-41.08 69.18,-62.05l-3.6 88.12 253.32 7.19 201.2 -965.71 -267.67 -3.59c-49.7,233.18 -99.42,466.37 -128.46,590.75 -29.04,124.38 -37.43,139.98 -52.1,152.86 -14.67,12.89 -35.64,23.07 -56.91,23.98 -21.25,0.9 -42.81,-7.5 -54.18,-22.79 -11.38,-15.28 -12.58,-37.45 11.37,-162.14 23.96,-124.69 73.07,-351.87 122.17,-579.07l-280.25 -1.79zm-3222.27 502.32l-319.78 460.38 282.05 1.79c42.51,-83.93 85.05,-167.84 111.09,-209.79 26.06,-41.97 35.64,-41.97 40.43,-41.97l4.79 0 19.75 246.37 271.28 -5.4 -120.36 -445.98 314.4 -501.75 -267.69 -1.79 -138.34 273.35 -30.54 -271.55 -267.68 -5.38 100.6 501.74zm-8599.86 -598.71l268.59 1.79 45.81 -231.08 -270.38 -3.61c0.6,0.6 1.19,1.21 -6.15,40.03l-37.87 192.86zm1798.34 -228.33l-271.28 1282.22 271.28 3.61c20.35,-109.1 40.72,-218.21 55.99,-279.06 15.27,-60.84 25.44,-73.42 36.21,-79.11 10.79,-5.7 22.18,-4.5 33.55,-3.3l71.86 357.86 296.42 0 -158.1 -562.87 334.08 -383.49 -280.17 -6.75 -255.11 303.92 132.94 -629.43 -267.68 -3.59zm-3759.48 550.81l62.88 -329.1c43.12,-0.6 86.24,-1.21 117.23,4.19 31,5.38 49.85,16.78 59.87,35.53 10.04,18.73 11.25,44.79 9.14,74.17 -2.1,29.38 -7.48,62.03 -16.77,91.56 -9.29,29.53 -22.45,55.9 -39.39,76.15 -16.91,20.23 -37.56,34.3 -70.35,41.21 -32.79,6.9 -77.72,6.59 -122.63,6.3zm278.45 -535.47c-110.19,-9.59 -285.04,-14.39 -459.92,-19.18l-269.47 1291.2 291.27 3.34 3.36 -17.73 97.01 -489.14c59.89,1.21 119.76,2.4 173.04,0 53.31,-2.4 100.03,-8.38 149.73,-28.76 49.7,-20.39 102.4,-55.17 144.92,-99.53 42.51,-44.35 74.86,-98.31 97.01,-155.85 22.16,-57.55 34.14,-118.71 40.72,-175.65 6.59,-56.94 7.79,-109.68 -4.19,-154.04 -11.98,-44.37 -37.14,-80.34 -72.47,-105.51 -35.33,-25.19 -80.83,-39.57 -191.02,-49.17zm305.5 604.29c-17.07,65.04 -37.42,158.56 -53.89,252.97 -16.48,94.42 -29.04,189.73 -31.75,245.18 -2.69,55.44 4.5,71.04 19.46,91.12 14.97,20.08 37.74,44.65 61.69,63.24 23.96,18.58 49.1,31.16 96.41,38.06 47.32,6.9 116.78,8.09 166.77,6.9 50.01,-1.21 80.57,-4.8 106.32,-12.28 25.75,-7.51 46.7,-18.91 73.95,-35.69 27.25,-16.78 60.79,-38.95 87.43,-62.93 26.66,-23.98 46.41,-49.75 76.65,-143.57 30.24,-93.81 70.95,-255.67 91.91,-355.78 20.97,-100.11 22.16,-138.47 21.26,-167.54 -0.9,-29.09 -3.88,-48.86 -8.08,-68.04 -4.19,-19.18 -9.57,-37.76 -19.75,-56.95 -10.18,-19.18 -25.16,-38.97 -44.03,-55.76 -18.86,-16.78 -41.62,-30.57 -86.84,-41.06 -45.2,-10.49 -112.86,-17.68 -162.27,-18.29 -49.41,-0.6 -80.53,5.4 -109.59,13.49 -29.04,8.09 -55.98,18.27 -85.03,33.57 -29.04,15.29 -60.18,35.66 -86.53,59.05 -26.35,23.37 -47.91,49.75 -65.57,81.22 -17.67,31.47 -31.43,68.04 -48.51,133.08zm173.37 476.27c-5.39,-16.2 -4.19,-36.57 5.98,-95.32 10.19,-58.75 29.35,-155.86 46.41,-237.37 17.08,-81.53 32.04,-147.48 44.91,-189.14 12.89,-41.66 23.66,-59.03 39.83,-69.81 16.18,-10.8 37.74,-15.01 58.99,-13.8 21.27,1.19 42.22,7.8 55.7,19.5 13.48,11.68 19.46,28.47 15.56,82.72 -3.88,54.24 -17.67,145.96 -33.24,228.68 -15.56,82.72 -32.92,156.45 -46.1,202.62 -13.17,46.15 -22.16,64.74 -37.14,78.83 -14.96,14.08 -35.92,23.67 -57.18,28.47 -21.25,4.8 -42.81,4.8 -59.58,-1.19 -16.77,-6 -28.75,-17.99 -34.14,-34.17zm760.84 -891.08l-232.05 1082.29 278.46 1.79 269.47 -1298.4 -269.47 -3.61 -46.41 217.91zm407.51 123.78l-201.22 963.91 282.07 -1.79 164.69 -799.66c32.93,-160.66 32.93,-162.45 32.93,-164.25l-278.46 1.79zm439.24 191.51c-44.01,185.53 -88.03,371.05 -110.63,479.86 -22.6,108.8 -23.81,140.87 -22.45,163.35 1.35,22.48 5.23,35.36 11.37,49.15 6.14,13.78 14.52,28.48 25.75,41.37 11.23,12.89 25.31,23.96 56.43,30.72 31.14,6.74 79.36,9.13 128.01,9.74 48.66,0.6 97.77,-0.6 146.87,-1.79l30.54 -194.22 -76.34 -0.15c-17.67,-0.15 -23.66,-0.45 -30.1,-3.29 -6.44,-2.86 -13.31,-8.25 -16.31,-16.64 -3,-8.4 -2.1,-19.79 18.56,-113.46 20.67,-93.66 61.08,-269.59 101.51,-445.54l124.86 -0.9 37.73 -192.42 -120.38 -0.9 58.39 -269.76 -276.65 -5.38 -54.8 276.04 -113.17 3.61 -40.41 191.52 121.25 -0.91zm445.24 52.18c-15.27,45.25 -30.85,104.01 -48.22,186.14 -17.36,82.12 -36.52,187.61 -47,255.65 -10.48,68.04 -12.29,98.61 -8.39,125.28 3.89,26.67 13.48,49.46 23.06,72.23 12.12,16.33 24.25,32.68 43.48,46.39 19.25,13.71 45.6,24.8 70.3,32.74 24.71,7.95 47.75,12.74 76.79,16.35 29.05,3.59 64.09,5.99 104.36,5.84 40.28,-0.15 85.78,-2.85 129.48,-13.93 43.72,-11.09 85.65,-30.58 126.07,-58.45 40.43,-27.88 79.34,-64.16 105.84,-101.61 26.51,-37.47 40.58,-76.15 48.89,-106.49 8.31,-30.34 10.85,-52.38 13.4,-74.4l-258.7 1.79c-4.19,24.58 -8.38,49.15 -16.77,76.42 -8.38,27.28 -20.96,57.26 -39.83,75.25 -18.86,17.97 -44.02,23.96 -67.68,23.96 -23.65,0 -45.79,-5.99 -60.48,-18.88 -14.67,-12.9 -21.85,-32.67 -22.45,-59.64 -0.59,-26.98 5.39,-61.16 12.58,-98.92l23.96 -120.48 472.48 7.19c17.37,-80.93 34.73,-161.85 43.71,-225.09 8.99,-63.24 9.6,-108.8 5.41,-141.77 -4.19,-32.97 -13.18,-53.36 -31.45,-75.83 -18.25,-22.48 -45.81,-47.04 -81.74,-63.83 -35.92,-16.78 -80.24,-25.79 -130.25,-30.28 -49.99,-4.5 -105.68,-4.5 -143.11,-1.79 -37.43,2.69 -56.6,8.09 -80.86,15.28 -24.25,7.19 -53.58,16.18 -82.64,30.57 -29.04,14.39 -57.77,34.16 -80.22,53.65 -22.46,19.48 -38.64,38.66 -54.22,64.14 -15.56,25.48 -30.52,57.24 -45.79,102.51zm446.3 107.47l-201.26 -6c2.1,-17.49 4.22,-34.96 9.45,-57.78 5.25,-22.84 13.64,-51.03 23.06,-71.85 9.44,-20.83 19.93,-34.3 29.66,-45.4 9.73,-11.09 18.71,-19.79 31.27,-24.73 12.58,-4.95 28.76,-6.15 43.28,-6.15 14.52,0 27.39,1.21 41.62,6.46 14.23,5.24 29.79,14.52 38.77,26.82 8.99,12.29 11.39,27.57 11.68,48.25 0.31,20.68 -1.5,46.75 -6.44,69.39 -4.94,22.63 -13.02,41.81 -21.1,60.99zm3584.33 254.65c-5.98,48.55 -8.98,100.11 -7.48,138.77 1.5,38.66 7.48,64.43 19.75,90.81 12.29,26.38 30.85,53.34 52.1,75.82 21.26,22.48 45.22,40.47 81.44,53.36 36.25,12.89 84.74,20.69 135.65,23.08 50.91,2.4 104.2,-0.6 158.09,-10.8 53.91,-10.19 108.4,-27.57 156.9,-53.05 48.51,-25.48 91.03,-59.03 128.46,-109.68 37.43,-50.67 69.76,-118.39 91.03,-180.14 21.27,-61.76 31.43,-117.5 41.62,-173.25l-301.81 -1.79c-13.18,66.54 -26.35,133.08 -38.33,174.15 -11.98,41.06 -22.77,56.63 -34.74,72.23 -11.96,15.58 -25.15,31.17 -40.72,40.16 -15.56,8.99 -33.52,11.38 -53.29,12.59 -19.77,1.19 -41.32,1.19 -58.09,-3.29 -16.77,-4.5 -28.73,-13.51 -36.23,-24.29 -7.48,-10.8 -10.48,-23.37 12.27,-148.07 22.77,-124.69 71.26,-361.46 99.71,-493.64 28.45,-132.18 36.83,-159.77 50.91,-181.04 14.08,-21.29 33.83,-36.26 55.99,-43.15 22.16,-6.9 46.7,-5.71 69.16,-0.6 22.46,5.09 42.83,14.08 55.7,23.37 12.87,9.28 18.25,18.87 19.15,41.35 0.91,22.48 -2.69,57.86 -8.68,93.83 -5.98,35.95 -14.36,72.52 -22.75,109.08l296.44 -1.79c11.98,-59.95 23.96,-119.88 29.94,-167.84 6,-47.96 6,-83.93 1.79,-111.81 -4.19,-27.88 -12.56,-47.65 -30.54,-73.13 -17.96,-25.48 -45.52,-56.65 -73.66,-78.82 -28.14,-22.19 -56.89,-35.38 -118.27,-43.48 -61.37,-8.09 -155.4,-11.08 -218.87,-5.98 -63.47,5.09 -96.42,18.29 -132.65,36.57 -36.23,18.27 -75.76,41.66 -106,66.54 -30.23,24.88 -51.19,51.24 -68.85,76.42 -17.67,25.17 -32.04,49.15 -61.68,155.26 -29.64,106.09 -74.57,294.33 -101.53,411.22 -26.94,116.89 -35.92,162.45 -41.91,211.02zm-1010.81 -934.41l-271.28 1282.22 271.28 3.61c20.35,-109.1 40.72,-218.21 55.99,-279.06 15.27,-60.84 25.44,-73.42 36.21,-79.11 10.79,-5.7 22.18,-4.5 33.55,-3.3l71.86 357.86 296.42 0 -158.1 -562.87 334.08 -383.49 -280.17 -6.75 -255.11 303.92 132.94 -629.43 -267.68 -3.59zm-482.6 328.6l-201.22 963.91 282.06 -1.79 164.69 -799.66c32.93,-160.66 32.93,-162.45 32.93,-164.25l-278.46 1.79zm35.47 -100.27l268.59 1.79 45.81 -231.08 -270.38 -3.61c0.6,0.6 1.19,1.21 -6.14,40.03l-37.87 192.86zm-871.53 96.26l-194.02 962.1 280.26 1.79c44.91,-232.58 89.84,-465.18 115.28,-590.17 25.45,-124.98 31.45,-142.36 44.33,-156.14 12.87,-13.8 32.62,-23.98 54.78,-25.77 22.16,-1.81 46.7,4.8 61.08,17.68 14.37,12.89 18.58,32.07 17.08,59.65 -1.5,27.57 -8.68,63.52 -25.16,144.45 -16.46,80.92 -42.21,206.81 -65.56,305.41 -23.35,98.61 -44.33,169.94 -65.28,241.28l283.86 0c50.31,-234.98 100.6,-469.96 128.13,-612.32 27.56,-142.37 32.35,-192.12 28.16,-228.68 -4.19,-36.57 -17.37,-59.96 -41.62,-81.23 -24.25,-21.29 -59.58,-40.47 -88.32,-50.65 -28.75,-10.19 -50.91,-11.4 -74.28,-7.8 -23.35,3.59 -47.89,11.99 -75.45,28.48 -27.54,16.48 -58.08,41.04 -82.03,58.43 -23.96,17.39 -41.31,27.58 -58.68,37.78l19.75 -104.3 -262.3 0zm4255.12 -119.77l-232.05 1082.29 278.46 1.79 269.47 -1298.4 -269.47 -3.61 -46.41 217.91zm409.07 315.29c-44.02,185.53 -88.03,371.05 -110.63,479.86 -22.6,108.8 -23.81,140.87 -22.46,163.35 1.36,22.48 5.23,35.36 11.38,49.15 6.14,13.78 14.52,28.48 25.75,41.37 11.23,12.89 25.31,23.96 56.43,30.72 31.14,6.74 79.36,9.13 128,9.74 48.66,0.6 97.78,-0.6 146.87,-1.79l30.54 -194.22 -76.35 -0.15c-17.66,-0.15 -23.66,-0.45 -30.1,-3.29 -6.44,-2.86 -13.31,-8.25 -16.31,-16.64 -3,-8.4 -2.1,-19.79 18.56,-113.46 20.66,-93.66 61.08,-269.59 101.51,-445.54l124.86 -0.9 37.72 -192.42 -120.38 -0.9 58.39 -269.76 -276.66 -5.38 -54.8 276.04 -113.17 3.61 -40.42 191.52 121.26 -0.91zm405.31 238.32c-17.36,82.12 -36.52,187.61 -47,255.65 -10.48,68.04 -12.29,98.61 -8.39,125.28 3.89,26.67 13.48,49.46 23.06,72.23 12.12,16.33 24.25,32.68 43.48,46.39 19.25,13.71 45.6,24.8 70.3,32.74 24.71,7.95 47.75,12.74 76.79,16.35 29.05,3.59 64.09,5.99 104.36,5.84 40.28,-0.15 85.78,-2.85 129.48,-13.93 43.72,-11.09 85.65,-30.58 126.07,-58.45 40.43,-27.88 79.34,-64.16 105.84,-101.61 26.51,-37.47 40.57,-76.15 48.89,-106.49 8.31,-30.34 10.85,-52.38 13.39,-74.4l-258.69 1.79c-4.19,24.58 -8.38,49.15 -16.77,76.42 -8.38,27.28 -20.96,57.26 -39.83,75.25 -18.86,17.97 -44.02,23.96 -67.68,23.96 -23.64,0 -45.79,-5.99 -60.47,-18.88 -14.67,-12.9 -21.85,-32.67 -22.45,-59.64 -0.59,-26.98 5.39,-61.16 12.58,-98.92l23.96 -120.48 472.48 7.19c17.37,-80.93 34.73,-161.85 43.7,-225.09 9,-63.24 9.6,-108.8 5.41,-141.77 -4.19,-32.97 -13.18,-53.36 -31.45,-75.83 -18.25,-22.48 -45.81,-47.04 -81.74,-63.83 -35.92,-16.78 -80.24,-25.79 -130.25,-30.28 -50,-4.5 -105.68,-4.5 -143.11,-1.79 -37.43,2.69 -56.6,8.09 -80.86,15.28 -24.25,7.19 -53.58,16.18 -82.64,30.57 -29.04,14.39 -57.77,34.16 -80.22,53.65 -22.46,19.48 -38.64,38.66 -54.22,64.14 -15.56,25.48 -30.53,57.24 -45.79,102.51 -15.27,45.25 -30.85,104.01 -48.22,186.14zm494.51 -78.68l-201.25 -6c2.1,-17.49 4.22,-34.96 9.45,-57.78 5.25,-22.84 13.64,-51.03 23.06,-71.85 9.44,-20.83 19.93,-34.3 29.66,-45.4 9.73,-11.09 18.71,-19.79 31.27,-24.73 12.58,-4.95 28.76,-6.15 43.28,-6.15 14.52,0 27.39,1.21 41.62,6.46 14.23,5.24 29.79,14.52 38.77,26.82 9,12.29 11.39,27.57 11.69,48.25 0.31,20.68 -1.5,46.75 -6.44,69.39 -4.94,22.63 -13.02,41.81 -21.11,60.99zm-2087.48 334.03c2.7,-19.18 9.29,-35.07 22.45,-53.5 13.18,-18.43 32.94,-39.41 53.75,-55.89 20.81,-16.49 42.68,-28.48 70.07,-40.47 27.39,-11.99 60.34,-23.98 76.8,-29.67 16.48,-5.69 16.48,-5.11 15.42,8.69 -1.04,13.78 -3.13,40.75 -8.52,73.28 -5.4,32.53 -14.08,70.58 -26.81,102.51 -12.72,31.92 -29.48,57.71 -47.74,72.56 -18.27,14.83 -38.04,18.71 -60.34,21.86 -22.31,3.15 -47.16,5.55 -62.28,5.4 -15.12,-0.15 -20.5,-2.86 -24.39,-10.05 -3.9,-7.19 -6.29,-18.88 -8.08,-35.95 -1.79,-17.1 -3,-39.57 -0.31,-58.76z"/>
   <path class="fil1" d="M1679.91 1054.16c94.18,-106.33 166.64,-182.25 228.53,-242.46 62.29,-60.58 113.82,-105.24 166.01,-148.86 51.8,-43.29 104.84,-86.05 158.9,-127.18 53.88,-41.01 107.89,-79.75 161.46,-114.88 46.59,-30.56 93.57,-58.88 137.9,-84.2 57.14,-32.63 109.72,-60.14 151.3,-80.94 37.22,-18.63 65.51,-31.88 89.21,-41.27 24.44,-9.67 44.84,-15.63 65.72,-19.48 20.06,-3.71 40.44,-5.36 60.39,-5.27 21.16,0.09 41.95,2.16 61.49,5.78 19.58,3.64 38.14,8.87 54.09,17.17 16.99,8.85 31.17,21.14 40.72,38.48 9.18,16.63 13.73,37.4 15.15,61.2 1.35,22.7 -0.11,48.39 -3.06,75.97 -1.94,18.31 -4.57,37.51 -7.61,57.28l37.34 -87.74c11.31,-26.74 20.57,-48.89 28.06,-69.58 7.25,-20.01 12.68,-38.27 16.41,-57.52 3.83,-19.68 5.98,-40.5 6.24,-60.72 0.24,-19.47 -1.26,-38.65 -4.68,-56.02 -3.27,-16.57 -8.27,-31.41 -14.47,-44.36 -6.68,-13.97 -14.89,-26.03 -23.86,-36.01 -8.33,-9.27 -17.27,-16.66 -27.21,-21.98 -9.91,-5.32 -21.21,-8.85 -34.36,-10.45 -13.83,-1.7 -29.62,-1.33 -45.69,0.26 -16.46,1.62 -33.48,4.57 -49.28,7.88 -15.52,3.24 -29.86,6.91 -47.46,12.98 -17.83,6.12 -38.97,14.72 -67.92,27.8 -33.17,14.98 -76.36,35.73 -124.21,61.32 -36.88,19.71 -77.01,42.6 -118.11,68.27 -46.77,29.24 -94.62,62.08 -142.31,96.76 -48.41,35.2 -95.88,71.66 -141.55,107.87 -46.25,36.66 -91.23,73.5 -135.58,111.27 -43.9,37.39 -87.68,76.17 -132.04,117.15 -44.07,40.73 -88.13,83.13 -133.06,127.64 -45.11,44.72 -91.34,91.76 -139.54,141.57 -49.68,51.35 -101.89,106.08 -151.93,159.45 -45.62,48.67 -89.07,95.81 -126.58,137.59 -39.13,43.62 -71.62,81.21 -101.53,118.1 -30,37 -57.86,73.85 -87.72,115.97 -27.87,39.32 -57.79,83.68 -87.62,129.4 -33.49,51.32 -66.54,103.81 -96.37,152.59 -22.63,37 -43.56,72.08 -63.48,106.02 236.81,-287.26 465.06,-562.57 628.3,-746.85z"/>
  </g>
 </g>
</svg>
